<svg xmlns="http://www.w3.org/2000/svg" xmlns:xlink="http://www.w3.org/1999/xlink" width="1366.354" height="351.376" viewBox="0 0 1366.354 351.376"><defs><style>.a{fill:url(#a);}</style><linearGradient id="a" x1="0.5" x2="0.5" y2="1" gradientUnits="objectBoundingBox"><stop offset="0" stop-color="#ff2121"/><stop offset="1" stop-color="#230807"/></linearGradient></defs><path class="a" d="M202.119,1985.661,202,1692.953s-1.464,46.453,38.787,63.246,56.783-63.246,56.783-63.246,37.483,74.441,60.43,63.246,58.886,18.85,91.23-63.246,31.626,128.55,69.721,87.5,70.066-111.38,70.066-111.38-19.033,150.563,43.5,100.186,35.22-99.577,35.22-99.577,36.657,93.98,67.564,75.322,30.188-101.648,30.188-101.648.719,88.588,29.469,101.648,51.033-82.785,51.033-82.785,20.844,124.528,43.126,124.528-10.063-117.064-10.063-117.064,36.657,97.717,55.345,51.072-24.438,54.8,11.5,47.333,68.283-117.064,68.283-117.064-20.125,83.479,48.157,117.064,83.377-105.869,83.377-105.869-11.5,82.785,31.626,82.785,50.314-161.15,60.376-93.98,53.908,183.759,66.845,125.919,44.564-135.028,47.439-93.98,17.969,121.967,35.938,93.98,38.095-56.664,37.376-93.98-6.469,43.6,43.845,73.455.174-157.418,28.838-92.114,15.007,144.357,33.695,69.724,36.868-28.507,36.149-78.884.5,330.877.5,330.877Z" transform="translate(-201.993 -1634.647)"/></svg>