<svg width="680.864" height="524.612" viewBox="0 0 680.864 524.612">
  <defs>
    <linearGradient id="linear-gradient" x1="10.413" y1="-19.774" x2="11.413" y2="-19.774" gradientUnits="objectBoundingBox">
      <stop offset="0" stop-color="#93fd93"/>
      <stop offset="0.51" stop-color="#21c2c1"/>
      <stop offset="1" stop-color="#84f599"/>
    </linearGradient>
    <linearGradient id="linear-gradient-2" x1="11.931" y1="-21.102" x2="12.564" y2="-21.953" xlink:href="#linear-gradient"/>
    <linearGradient id="linear-gradient-3" x1="12.002" y1="-32.205" x2="12.913" y2="-31.14" xlink:href="#linear-gradient"/>
    <linearGradient id="linear-gradient-4" x1="23.359" y1="-11.93" x2="21.945" y2="-11.337" xlink:href="#linear-gradient"/>
    <linearGradient id="linear-gradient-5" x1="22.1" y1="-11.548" x2="23.102" y2="-11.548" xlink:href="#linear-gradient"/>
    <linearGradient id="linear-gradient-6" x1="11.534" y1="-18.3" x2="12.103" y2="-17.54" xlink:href="#linear-gradient"/>
    <linearGradient id="linear-gradient-7" x1="14.297" y1="-31.904" x2="15.297" y2="-31.904" gradientUnits="objectBoundingBox">
      <stop offset="0.001" stop-color="#58caea"/>
      <stop offset="0.999" stop-color="#4b45bd"/>
    </linearGradient>
    <linearGradient id="linear-gradient-8" y1="1.047" x2="1.001" y2="1.047" gradientUnits="objectBoundingBox">
      <stop offset="0" stop-color="#4b45bd"/>
      <stop offset="1" stop-color="#58caea"/>
    </linearGradient>
    <linearGradient id="linear-gradient-9" y1="1.203" x2="0.999" y2="1.203" gradientUnits="objectBoundingBox">
      <stop offset="0" stop-color="#f87b58"/>
      <stop offset="0.41" stop-color="#f89453"/>
      <stop offset="0.71" stop-color="#f8c548"/>
      <stop offset="1" stop-color="#f89c51"/>
    </linearGradient>
    <linearGradient id="linear-gradient-10" y1="1.278" x2="1.002" y2="1.278" gradientUnits="objectBoundingBox">
      <stop offset="0" stop-color="#fd5d93"/>
      <stop offset="1" stop-color="#ec250d"/>
    </linearGradient>
    <linearGradient id="linear-gradient-11" x1="0.001" y1="4.169" x2="1" y2="4.169" xlink:href="#linear-gradient-8"/>
    <clipPath id="clip-path">
      <rect id="Rectangle_40" data-name="Rectangle 40" width="10.437" height="17.066"/>
    </clipPath>
    <clipPath id="clip-path-2">
      <rect id="Rectangle_41" data-name="Rectangle 41" width="29.054" height="50.422"/>
    </clipPath>
    <clipPath id="clip-path-3">
      <rect id="Rectangle_42" data-name="Rectangle 42" width="23.695" height="180.251"/>
    </clipPath>
    <linearGradient id="linear-gradient-12" x1="0" y1="9.479" x2="1" y2="9.479" xlink:href="#linear-gradient-10"/>
    <linearGradient id="linear-gradient-13" x1="14.37" y1="227.846" x2="15.37" y2="227.846" xlink:href="#linear-gradient-10"/>
    <linearGradient id="linear-gradient-14" x1="7" y1="15.993" x2="8.001" y2="15.993" xlink:href="#linear-gradient-10"/>
    <linearGradient id="linear-gradient-15" x1="70.774" y1="28.091" x2="71.774" y2="28.091" gradientUnits="objectBoundingBox">
      <stop offset="0" stop-color="#58caea"/>
      <stop offset="1" stop-color="#4c4cbf"/>
    </linearGradient>
    <linearGradient id="linear-gradient-16" x1="124.067" y1="208.734" x2="125.048" y2="208.734" xlink:href="#linear-gradient-15"/>
    <linearGradient id="linear-gradient-17" x1="0.001" y1="55.604" x2="0.999" y2="55.604" gradientUnits="objectBoundingBox">
      <stop offset="0" stop-color="#4c4fc0"/>
      <stop offset="1" stop-color="#58caea"/>
    </linearGradient>
    <linearGradient id="linear-gradient-18" x1="0.012" y1="123.833" x2="1.005" y2="123.833" gradientUnits="objectBoundingBox">
      <stop offset="0" stop-color="#4d54c2"/>
      <stop offset="1" stop-color="#4c4cbf"/>
    </linearGradient>
    <linearGradient id="linear-gradient-19" x1="-0.013" y1="133.319" x2="0.999" y2="133.319" xlink:href="#linear-gradient-18"/>
    <linearGradient id="linear-gradient-20" x1="16.763" y1="166.717" x2="17.762" y2="166.717" gradientUnits="objectBoundingBox">
      <stop offset="0" stop-color="#4b46bd"/>
      <stop offset="1" stop-color="#5cd4ee"/>
    </linearGradient>
    <linearGradient id="linear-gradient-21" x1="16.468" y1="149.817" x2="17.472" y2="149.817" xlink:href="#linear-gradient-10"/>
    <linearGradient id="linear-gradient-22" x1="-1.045" y1="13.877" x2="3.086" y2="13.032" xlink:href="#linear-gradient-20"/>
    <linearGradient id="linear-gradient-23" x1="-1.052" y1="13.878" x2="3.073" y2="13.033" xlink:href="#linear-gradient-20"/>
    <linearGradient id="linear-gradient-24" x1="32.255" y1="33.566" x2="33.67" y2="32.338" xlink:href="#linear-gradient-20"/>
    <linearGradient id="linear-gradient-25" x1="-0.842" y1="16.044" x2="2.751" y2="15.187" gradientUnits="objectBoundingBox">
      <stop offset="0" stop-color="#7d5df5"/>
      <stop offset="1" stop-color="#cd94ef"/>
    </linearGradient>
    <linearGradient id="linear-gradient-26" x1="-1" y1="14.36" x2="2.997" y2="13.513" xlink:href="#linear-gradient-10"/>
  </defs>
  <g id="example" transform="translate(22.723 0.055) rotate(3)">
    <g id="Layer_1" transform="translate(-1.124 -0.036)">
      <g id="bg" transform="translate(0.762)">
        <path id="Path_20" data-name="Path 20" d="M10.072,217.122S-46.556,34.968,108.166,25.8s126.161,39,263.535,9.238S511.4-15.243,582.91,14.446s76.162,106.274,61.212,145.2-44.992,69.745-42.735,91.465,50.845,77.573,57.263,115.3c3.526,20.592-6.7,55.711-16.29,57.192-71.155,11.354-356.975-7.334-356.975-7.334l-165.935-7.334L30.664,396.809s3.032-50.916,2.75-91.183C33.132,264.3,10.072,217.122,10.072,217.122Z" transform="translate(0.043 0.036)" fill="#f8f8ff"/>
        <path id="Path_21" data-name="Path 21" d="M43.424,532.967s-19.323,79.97,86.811,74.54S235.17,590.3,302.164,611.1s108.743,29.054,160.5,12.694,53.1-13.611,118.827-13.611,88.221-70.1,89.914-79.688c2.045-11.283-2.68-48.307-12.129-48.377-69.463-.846-499.709-4.443-533.629,4.936C96.526,495.1,61.478,521.9,44.623,529.018" transform="translate(-12.365 -141.694)" fill="#f5f5fc"/>
      </g>
      <g id="window" transform="translate(0 25.977)">
        <path id="Path_22" data-name="Path 22" d="M61.705,331.858l65.584-26.8L128.418,36.8S80.041,39.9,61,58.238Z" transform="translate(-17.19 -36.8)" fill="#e9edfb"/>
        <path id="Path_23" data-name="Path 23" d="M43.114,67.2l1.622,273.267-11.495,4.8s1.622-12.412-1.2-39.421C29.433,280.666,2.776,219.595.8,196.253-.609,179.68.167,112.192,16.668,92.164,31.9,73.758,43.114,67.2,43.114,67.2Z" transform="translate(0.697 -45.762)" fill="#e9edfb"/>
        <ellipse id="Ellipse_2" data-name="Ellipse 2" cx="13.752" cy="9.52" rx="13.752" ry="9.52" transform="translate(62.128 84.655) rotate(-9.881)" fill="#fff"/>
        <ellipse id="Ellipse_3" data-name="Ellipse 3" cx="11.213" cy="7.757" rx="11.213" ry="7.757" transform="translate(80.514 83.065) rotate(-9.881)" fill="#fff"/>
        <ellipse id="Ellipse_4" data-name="Ellipse 4" cx="13.752" cy="9.52" rx="13.752" ry="9.52" transform="translate(0 117.812) rotate(-9.881)" fill="#fff"/>
        <ellipse id="Ellipse_5" data-name="Ellipse 5" cx="11.213" cy="7.757" rx="11.213" ry="7.757" transform="translate(16.339 111.98) rotate(-9.881)" fill="#fff"/>
        <path id="Path_24" data-name="Path 24" d="M68.9,59.379l3.314-1.834.141-.071L74.4,56.417l1.975-.917L79.69,330.883l-6.911,2.891Z" transform="translate(-19.519 -42.313)" fill="#fff"/>
        <path id="Path_25" data-name="Path 25" d="M31.832,339.335l-.776-2.609c-.141.07-.564-1.9-.635-1.9l-.846-2.116-.776-2.327L118.291,296.6l.282,7.546Z" transform="translate(-7.697 -113.388)" fill="#fff"/>
        <path id="Path_26" data-name="Path 26" d="M1.581,237.068,1.3,235.588c-.141-.423-.353-2.186-.494-2.609l-.353-2.891L.1,227.971,110.465,185.8l-.353,7.4Z" transform="translate(0.763 -80.724)" fill="#fff"/>
      </g>
      <g id="seat" transform="translate(289.995 181.365)">
        <path id="Path_27" data-name="Path 27" d="M424.589,357.957a22.519,22.519,0,0,0,4.513-10.578c.635-4.725,2.327-10.649,6.629-14.739,6.558-6.206,7.475-32.439,7.616-42.171a39.627,39.627,0,0,1,1.693-10.79c1.975-6.135,5.924-14.668,13.681-18.759,7.9-4.161,33.145-5.924,40.479.212,14.95,12.482,12.905,28.913,13.117,31.523,1.128,12.271.423,21.227,6.7,28.984s13.328,17.136,11.495,26.657,14.6,23.624-3.385,29.478-36.389,9.943-56.416,8.321c-17.771-1.41-42.03-4.3-46.826-16.079C421.627,364.234,422.826,360.355,424.589,357.957Z" transform="translate(-413.797 -257.144)" fill="#e9edfa"/>
        <path id="Path_28" data-name="Path 28" d="M431.16,395.824a11.148,11.148,0,0,1,3.808-3.949c1.9-.987,5.783-3.667,24.753,4.09,27.08,11.142,49.364-2.468,51.48-2.75s21.227-6.276,20.733,6.276-23.131,19.323-29.971,19.6-35.331,2.962-49.364-1.058-19.393-9.45-20.38-10.79C431.16,405.767,427.634,400.831,431.16,395.824Z" transform="translate(-415.855 -296.492)" fill="#bac5f4"/>
        <path id="Path_29" data-name="Path 29" d="M432.448,515.723h1.34a4.35,4.35,0,0,0,4.443-4.3v-.141l-.141-6.347a1.849,1.849,0,0,0-1.128-1.622l-.423-.141a1.738,1.738,0,0,1-.987-2.327,1.419,1.419,0,0,1,.635-.776,5.818,5.818,0,0,1,.917-.494c2.962-1.128,9.238-4.725,25.74-6.417,9.027-.917,13.61-1.2,16.008-1.269a1.87,1.87,0,0,0,1.763-1.9.894.894,0,0,0-.071-.423h0a1.743,1.743,0,0,0-1.975-1.269c-5.783.705-26.375,3.173-33.145,4.8a41.65,41.65,0,0,0-11.283,4.725,5.123,5.123,0,0,0-2.4,3.879,1.871,1.871,0,0,1-.776,1.34,9.2,9.2,0,0,1-2.186,1.128c-1.128.353-1.128,4.231-.846,7.475A4.482,4.482,0,0,0,432.448,515.723Z" transform="translate(-415.309 -325.279)" fill="#a2b7ed"/>
        <path id="Path_30" data-name="Path 30" d="M556.142,515.694h-.987a4.681,4.681,0,0,1-4.8-4.654v-.212l.141-5.994a1.739,1.739,0,0,1,1.128-1.622l.423-.141a1.738,1.738,0,0,0,.987-2.327,2.2,2.2,0,0,0-.635-.776,5.837,5.837,0,0,0-.917-.494c-2.962-1.128-9.168-4.725-25.528-6.417-8.886-.917-13.469-1.2-15.8-1.269a1.87,1.87,0,0,1-1.763-1.9.9.9,0,0,1,.07-.423h0a1.743,1.743,0,0,1,1.975-1.269c5.783.705,26.163,3.173,32.792,4.8a39.877,39.877,0,0,1,11.142,4.725,5.123,5.123,0,0,1,2.4,3.879,1.872,1.872,0,0,0,.776,1.34,10.079,10.079,0,0,0,2.116,1.128c1.128.353,1.058,4.3.846,7.546A4.4,4.4,0,0,1,556.142,515.694Z" transform="translate(-439.076 -325.249)" fill="#a2b7ed"/>
        <path id="Path_31" data-name="Path 31" d="M500.262,443.039l-.141,53.384a1.264,1.264,0,0,1-1.269,1.269h-.282a1.264,1.264,0,0,0-1.269,1.269v.071l.212,9.027a4.126,4.126,0,0,0,4.09,4.02l2.821.07a4.2,4.2,0,0,0,4.3-4.161v-.282l-.353-8.745a1.206,1.206,0,0,0-1.269-1.2h0a1.264,1.264,0,0,1-1.269-1.269h0l.141-54.724A1.264,1.264,0,0,0,504.7,440.5h-3.244a1.264,1.264,0,0,0-1.269,1.269v.07Z" transform="translate(-435.804 -311.197)" fill="#a2b7ed"/>
        <path id="Path_32" data-name="Path 32" d="M474.625,497.7s-43.159,17.348-49.929,23.131-7.9,9.379-7.616,10.931c0,.141.282.282.564.353a3.768,3.768,0,0,1,2.75,3.738l-.141,9.1a2.574,2.574,0,0,1-2.539,2.539h-4.866a2.636,2.636,0,0,1-2.609-2.539l-.141-9.027a3.814,3.814,0,0,1,3.244-3.879h.071s1.692-6.84,4.3-9.168,7.193-7.546,25.246-15.444S474.555,494.6,474.555,494.6Z" transform="translate(-410.096 -327.145)" fill="#bac5f4"/>
        <path id="Path_33" data-name="Path 33" d="M509.3,497.524a1.5,1.5,0,0,0,.846,1.34c5.924,2.539,40.338,17.419,46.261,22.708,6.417,5.783,7.475,9.379,7.193,10.931-.071.353-.987.494-1.9.564a1.465,1.465,0,0,0-1.34,1.481l.141,9.661a4.154,4.154,0,0,0,4.161,4.09h1.2a4.2,4.2,0,0,0,4.161-4.09l.141-9.591a1.382,1.382,0,0,0-1.2-1.41l-1.058-.141a1.349,1.349,0,0,1-1.128-1.058c-.494-1.9-1.9-6.488-3.879-8.321-2.468-2.327-6.841-7.546-23.906-15.444-13.117-5.994-23.624-10.3-27.785-11.988a1.4,1.4,0,0,0-1.834.705,1.554,1.554,0,0,1-.07.564Z" transform="translate(-439.341 -327.601)" fill="#bac5f4"/>
      </g>
      <g id="table" transform="translate(74.134 244.167)">
        <path id="Path_34" data-name="Path 34" d="M174,504.906l.705-122.706h16.22V505.611Z" transform="translate(-124.636 -356.813)" fill="#fff"/>
        <path id="Path_35" data-name="Path 35" d="M705,379.1l.705,126.3h14.1l.282-125.738Z" transform="translate(-281.172 -355.899)" fill="#fff"/>
        <path id="Path_36" data-name="Path 36" d="M104,361.2v14.809l485.181-1.41V361.905Z" transform="translate(-104 -350.622)" fill="#fff"/>
        <path id="Path_37" data-name="Path 37" d="M104,356.778,138.555,346.2l411.135.705,39.492,10.578Z" transform="translate(-104 -346.2)" fill="#bac5f4"/>
        <path id="Path_38" data-name="Path 38" d="M416.5,353.248l8.11-4.936,37.446-.212-5.642,4.8Z" transform="translate(-196.123 -346.76)" fill="#f8f8ff"/>
      </g>
      <g id="Flower" transform="translate(84.711 178.319)">
        <path id="Path_39" data-name="Path 39" d="M149.043,308.521s-6.135-.282-6.911,1.692,1.41,28.913,2.4,30.535,10.719,2.045,13.469,2.045c0,0,10.225-.917,10.719-1.622s7.4-28.561,5.148-32.3-24.471-.282-24.471-.282" transform="translate(-125.77 -268.836)" fill="#e9edfc"/>
        <path id="Path_40" data-name="Path 40" d="M141.5,315.624s19.041,1.481,21.3.846,1.481-6.347,1.481-6.347l9.45-.423s0,5.5-.635,6.135a8.99,8.99,0,0,0-1.622,2.891c0,.353-4.02,23.624-4.02,23.624s-6.135.917-6.911.846c-.987-.141,2.539-19.323,2.539-20.663s0-3.879-.987-3.879-19.6.564-19.746-1.551a2.9,2.9,0,0,0-.846-1.481" transform="translate(-125.632 -269.591)" fill="#bac4f6"/>
        <path id="Path_41" data-name="Path 41" d="M142.412,304.279s-5.289-3.738-8.11-4.09-6.135-.705-8.956-1.128-6.417-1.692-6.347-3.385a3.394,3.394,0,0,1,2.045-3.385A10.912,10.912,0,0,1,125.7,290.6c1.269-.141,13.963,3.173,19.252,11.072l2.116,2.609h-4.654Z" transform="translate(-118.999 -263.959)" fill="#bac4f6"/>
        <path id="Path_42" data-name="Path 42" d="M126.1,296.9a31.4,31.4,0,0,1,7.546.776,39.4,39.4,0,0,1,6.065,2.821l7.969,5.571" transform="translate(-121.092 -265.818)" fill="#bac4f6"/>
        <path id="Path_43" data-name="Path 43" d="M126.1,296.9a31.4,31.4,0,0,1,7.546.776,39.4,39.4,0,0,1,6.065,2.821l7.969,5.571" transform="translate(-121.092 -265.818)" fill="none" stroke="#fff" stroke-linecap="round" stroke-miterlimit="10" stroke-width="0.75"/>
        <path id="Path_44" data-name="Path 44" d="M151.552,298.026s-6.206-8.392-8.6-10.719c-2.4-2.4-5.219-5.077-7.546-7.546s-5.219-5.994-4.02-7.475,2.116-2.468,4.372-2.116A11.353,11.353,0,0,1,140.692,272c1.269.776,12.482,11.495,14.1,23.765l1.622,2.468Z" transform="translate(-122.567 -257.917)" fill="#bac4f6"/>
        <path id="Path_45" data-name="Path 45" d="M139.5,277.2s4.8,2.891,6.7,5.642c1.763,2.609,4.584,7.193,4.584,7.193l3.173,8.815" transform="translate(-125.042 -260.011)" fill="none" stroke="#fff" stroke-linecap="round" stroke-miterlimit="10" stroke-width="0.75"/>
        <path id="Path_46" data-name="Path 46" d="M156.976,293.746s-7.193-15.656-8.533-18.758-6.84-7.757-8.11-10.931c-1.2-3.173-1.975-5.43-.705-7.193s4.584-3.173,6.7-2.116c1.975.987,4.584,3.949,5.712,5.43.846,1.2,6.77,22.426,6.276,27.362l1.128,6.276Z" transform="translate(-124.888 -253.284)" fill="#e9edfc"/>
        <path id="Path_47" data-name="Path 47" d="M146.4,263.2s4.161,5.36,5.43,8.462a84.82,84.82,0,0,1,2.609,9.168l4.3,14.527" transform="translate(-127.076 -255.884)" fill="none" stroke="#fff" stroke-linecap="round" stroke-miterlimit="10" stroke-width="0.75"/>
        <path id="Path_48" data-name="Path 48" d="M148.351,301.1s-6.347-7.264-9.45-8.674-6.629-2.962-9.661-4.513-6.629-4.09-6.065-5.642c.635-1.551,1.269-2.186,3.456-2.468a14.527,14.527,0,0,1,5.783.141c1.41.353,14.668,8.392,18.053,17.912l1.551,3.314Z" transform="translate(-120.212 -260.712)" fill="#e9edfc"/>
        <path id="Path_49" data-name="Path 49" d="M131.5,285.4a45.217,45.217,0,0,1,8.251,3.667,65.489,65.489,0,0,1,5.924,5.007l6.065,8.886" transform="translate(-122.684 -262.428)" fill="none" stroke="#fff" stroke-linecap="round" stroke-miterlimit="10" stroke-width="0.75"/>
        <path id="Path_50" data-name="Path 50" d="M180.248,304.874s5.783-3.526,8.815-3.879,6.558-.635,9.661-1.058,6.911-1.622,6.84-3.173-.423-2.327-2.257-3.244A13.926,13.926,0,0,0,198.3,291.9c-1.34-.141-15.162,3.032-20.874,10.578l-2.327,2.468Z" transform="translate(-135.537 -264.342)" fill="#bac4f6"/>
        <path id="Path_51" data-name="Path 51" d="M201.226,297.9a36.761,36.761,0,0,0-8.18.776,44.129,44.129,0,0,0-6.558,2.68L178.8,306.5" transform="translate(-136.628 -266.112)" fill="#bac4f6"/>
        <path id="Path_52" data-name="Path 52" d="M201.226,297.9a36.761,36.761,0,0,0-8.18.776,44.129,44.129,0,0,0-6.558,2.68L178.8,306.5" transform="translate(-136.628 -266.112)" fill="none" stroke="#fff" stroke-linecap="round" stroke-miterlimit="10" stroke-width="0.75"/>
        <path id="Path_53" data-name="Path 53" d="M171.648,298.935s6.7-8.039,9.309-10.3,5.642-4.866,8.18-7.193,5.642-5.712,4.372-7.123-2.257-2.327-4.725-2.045a11.781,11.781,0,0,0-5.289,1.763c-1.34.776-13.469,11-15.232,22.708l-1.763,2.4Z" transform="translate(-133.002 -258.545)" fill="#bac4f6"/>
        <path id="Path_54" data-name="Path 54" d="M189.526,279s-5.219,2.75-7.264,5.36c-1.9,2.468-5.007,6.911-5.007,6.911l-3.456,8.392" transform="translate(-135.154 -260.541)" fill="none" stroke="#fff" stroke-linecap="round" stroke-miterlimit="10" stroke-width="0.75"/>
        <path id="Path_55" data-name="Path 55" d="M167.95,294.9s7.828-14.95,9.238-17.912,7.4-7.4,8.745-10.437,2.186-5.218.776-6.841-5.007-3.032-7.264-2.045c-2.186.917-4.936,3.737-6.206,5.218-.987,1.128-7.334,21.438-6.84,26.163l-1.2,5.994Z" transform="translate(-132.618 -254.155)" fill="#e9edfc"/>
        <path id="Path_56" data-name="Path 56" d="M164.843,293.357s.635-14.6,2.116-19.323c.987-3.173,1.975-8.462,3.314-11.424s-.705-6.911-2.045-8.6-4.936-1.34-7.264-.353c-2.186.917-3.385,3.949-3.667,5.571-.212,1.481,4.936,19.041,4.372,25.529l.423,8.745Z" transform="translate(-130.287 -252.825)" fill="#bac4f6"/>
        <path id="Path_57" data-name="Path 57" d="M182.852,265.7s-4.443,5.077-5.853,8.11a76.149,76.149,0,0,0-2.821,8.745L169.1,296.8" transform="translate(-133.768 -256.62)" fill="none" stroke="#fff" stroke-linecap="round" stroke-miterlimit="10" stroke-width="0.75"/>
        <path id="Path_58" data-name="Path 58" d="M173.549,301.957s6.911-6.911,10.225-8.251,7.193-2.821,10.437-4.3,7.193-3.879,6.558-5.36-1.34-2.045-3.738-2.327a18.352,18.352,0,0,0-6.206.141c-1.551.353-15.867,7.969-19.534,17.066l-1.692,3.1Z" transform="translate(-133.916 -261.284)" fill="#e9edfc"/>
        <path id="Path_59" data-name="Path 59" d="M195.532,286.8a56,56,0,0,0-8.886,3.456,59.248,59.248,0,0,0-6.347,4.725l-6.7,7.475" transform="translate(-135.095 -262.841)" fill="none" stroke="#fff" stroke-linecap="round" stroke-miterlimit="10" stroke-width="0.75"/>
        <path id="Path_60" data-name="Path 60" d="M166,258.4s1.2,12.482.494,15.867c-.282,1.41-.141,10.225-.141,10.225l-.212,9.8" transform="translate(-132.854 -254.468)" fill="none" stroke="#fff" stroke-linecap="round" stroke-miterlimit="10" stroke-width="0.75"/>
      </g>
      <g id="computer" transform="translate(233.581 176.679)">
        <rect id="Rectangle_34" data-name="Rectangle 34" width="77.502" height="60.859" fill="#fff"/>
        <circle id="Ellipse_6" data-name="Ellipse 6" cx="4.654" cy="4.654" r="4.654" transform="translate(32.439 26.234)" fill="#f5f5fc"/>
        <path id="Path_61" data-name="Path 61" d="M368.936,334.7s1.975,5.148-.282,6.558-15.938,6.84-15.938,6.84-.987,1.622,1.41,2.116c2.186.494,29.971.07,35.966,0a2,2,0,0,0,1.975-1.2c.141-.494-.071-1.058-1.128-1.41-1.834-.635-8.6-4.372-11.565-5.924a3.446,3.446,0,0,1-1.551-2.68c-.353-1.622-.564-3.385.564-3.738,1.763-.564-9.379.141-9.379.141" transform="translate(-336.708 -275.322)" fill="#fff"/>
      </g>
      <g id="books" transform="translate(195.5 107.64)">
        <path id="Path_62" data-name="Path 62" d="M287.665,227.391l201.548-.282-.353-33.709-212.62,1.622-.141,32.369Z" transform="translate(-276.1 -164.628)" fill="#e9edfa"/>
        <path id="Path_63" data-name="Path 63" d="M435.5,202v23.2l94.85-.353V202.282Z" transform="translate(-323.09 -167.163)" fill="#bac5f4"/>
        <path id="Path_64" data-name="Path 64" d="M291.7,202v23.2l94.85-.353V202.282Z" transform="translate(-280.699 -167.163)" fill="#bac5f4"/>
        <path id="Path_65" data-name="Path 65" d="M291.7,209.9h5.007v17.7l-5.007-.071Z" transform="translate(-280.699 -169.492)" fill="#fff"/>
        <path id="Path_66" data-name="Path 66" d="M298.871,214.3h3.314l.141,14.527-3.526.07Z" transform="translate(-282.792 -170.789)" fill="#f5f5fc"/>
        <path id="Path_67" data-name="Path 67" d="M417.5,209.7h2.891v17.7l-2.891-.071Z" transform="translate(-317.784 -169.433)" fill="#fff"/>
        <path id="Path_68" data-name="Path 68" d="M421.671,214.1h3.315l.141,14.527-3.526.071Z" transform="translate(-318.993 -170.73)" fill="#f5f5fc"/>
        <path id="Path_69" data-name="Path 69" d="M303.971,211.1h3.314l.141,16.784-3.526.071Z" transform="translate(-284.295 -169.846)" fill="#f5f5fc"/>
        <path id="Path_70" data-name="Path 70" d="M308.6,216.24l1.692-1.34,8.674,12.553-1.9,1.551Z" transform="translate(-285.681 -170.966)" fill="#fff"/>
        <path id="Path_71" data-name="Path 71" d="M365.8,233.8h20.8l-.141-2.4-20.663.141Z" transform="translate(-302.543 -175.83)" fill="#fff"/>
        <path id="Path_72" data-name="Path 72" d="M370.7,230.527h20.8l-.071-2.327-20.733.141Z" transform="translate(-303.988 -174.886)" fill="#e9edfa"/>
        <path id="Path_73" data-name="Path 73" d="M440.2,208.7h2.891l.071,18.617-2.962-.071Z" transform="translate(-324.476 -169.138)" fill="#fff"/>
        <path id="Path_74" data-name="Path 74" d="M444.4,214.3h3.314l.141,14.527-3.455.07Z" transform="translate(-325.714 -170.789)" fill="#f5f5fc"/>
        <path id="Path_75" data-name="Path 75" d="M561,209.6h2.891l.07,17.63H561Z" transform="translate(-360.087 -169.403)" fill="#fff"/>
        <path id="Path_76" data-name="Path 76" d="M565.1,213.6h3.456l.141,14.668-3.526.071Z" transform="translate(-361.296 -170.582)" fill="#f5f5fc"/>
        <path id="Path_77" data-name="Path 77" d="M556.27,215.7h3.315l.141,13.328-3.526.07Z" transform="translate(-358.672 -171.202)" fill="#f5f5fc"/>
        <path id="Path_78" data-name="Path 78" d="M435.4,211.1h3.385l.07,16.854-3.455.071Z" transform="translate(-323.061 -169.846)" fill="#f5f5fc"/>
        <path id="Path_79" data-name="Path 79" d="M484.4,216.31l1.693-1.41,8.6,12.623L492.862,229Z" transform="translate(-337.506 -170.966)" fill="#fff"/>
        <path id="Path_80" data-name="Path 80" d="M464.4,233.827h20.8l-.141-2.327-20.663.141Z" transform="translate(-331.61 -175.859)" fill="#fff"/>
        <path id="Path_81" data-name="Path 81" d="M462.8,230.727h20.733l-.071-2.327-20.663.141Z" transform="translate(-331.138 -174.945)" fill="#e9edfa"/>
        <path id="Path_82" data-name="Path 82" d="M578.011,179.609,577.8,152.6h189l.423,64.6-189.066,1.551-.141-36.671" transform="translate(-365.039 -152.6)" fill="#e9edfa"/>
        <path id="Path_83" data-name="Path 83" d="M385.461,166.99s-1.833-.635-1.974-1.058-.776-3.032.423-3.032h10.3s1.692,2.75-.423,3.314-.282,1.692.282,1.692,1.975,0,2.257.776.282,16.643.282,16.643H381.3V169.882a1.7,1.7,0,0,1,1.622-1.692h.071C384.685,168.189,385.884,167.766,385.461,166.99Z" transform="translate(-307.112 -155.636)" fill="#e9edfa"/>
        <rect id="Rectangle_35" data-name="Rectangle 35" width="10.719" height="6.629" transform="translate(76.515 17.489)" fill="#fff"/>
        <path id="Path_84" data-name="Path 84" d="M410.261,166.99s-1.833-.635-1.975-1.058-.776-3.032.423-3.032h10.3s1.692,2.75-.423,3.314-.282,1.692.282,1.692,1.975,0,2.257.776.282,16.643.282,16.643H406.1V169.882a1.7,1.7,0,0,1,1.622-1.692h.07C409.555,168.189,410.754,167.766,410.261,166.99Z" transform="translate(-314.423 -155.636)" fill="#bac5f4"/>
        <rect id="Rectangle_36" data-name="Rectangle 36" width="10.719" height="6.629" transform="translate(94.004 17.489)" fill="#fff"/>
        <path id="Path_85" data-name="Path 85" d="M435.861,166.69s-1.834-.635-1.975-1.058-.776-3.032.423-3.032h10.3s1.692,2.75-.423,3.314-.282,1.693.282,1.693,1.975,0,2.257.776.282,16.643.282,16.643H431.7V169.582a1.7,1.7,0,0,1,1.622-1.692h.071C435.085,167.889,436.354,167.466,435.861,166.69Z" transform="translate(-321.97 -155.548)" fill="#e9edfa"/>
        <rect id="Rectangle_37" data-name="Rectangle 37" width="10.719" height="6.629" transform="translate(112.057 17.278)" fill="#fff"/>
        <rect id="Rectangle_38" data-name="Rectangle 38" width="87.304" height="53.314" transform="translate(219.46 6.558)" fill="#bac5f4"/>
        <circle id="Ellipse_7" data-name="Ellipse 7" cx="3.808" cy="3.808" r="3.808" transform="translate(312.336 30.817)" fill="#bac5f4"/>
        <path id="Path_86" data-name="Path 86" d="M668.261,209.89s-1.833-.635-1.974-1.058-.776-3.032.423-3.032h10.3s1.692,2.75-.423,3.314-.282,1.692.282,1.692,1.975,0,2.257.776.282,16.643.282,16.643H664.1V212.782a1.7,1.7,0,0,1,1.622-1.692h.07C667.485,211.089,668.684,210.666,668.261,209.89Z" transform="translate(-390.48 -168.283)" fill="#fff"/>
        <rect id="Rectangle_39" data-name="Rectangle 39" width="10.719" height="6.629" transform="translate(275.876 47.742)" fill="#f5f5fc"/>
      </g>
    </g>
    <g id="Layer_2" transform="translate(115.903 95.281)">
      <g id="Layer_6" transform="translate(425.007 241.471)">
        <g id="Layer_18">
          <path id="Path_87" data-name="Path 87" d="M819.049,581.132s4.443-24.047-18.9-36.953-24.4-12.764-28.984-14.175c-2.68-.917-5.359.987-2.327,4.866s1.34,4.866,7.475,6.558,7.052,9.168,10.155,11c3.032,1.833,5.712,2.327,15.091,6.417,8.533,3.667,15.726,14.034,15.726,17.7s8.321,4.866,8.321,4.866Z" transform="translate(-767.495 -492.939)" fill="url(#linear-gradient)"/>
          <path id="Path_88" data-name="Path 88" d="M819.94,577.928s5.924-22.143-14.457-34.132-27.573-11.847-31.593-13.258c-2.327-.846,4.02,2.045,6.7,5.571s1.975,2.75,6.77,5.43c5.571,3.032,7.828,6.065,11.142,6.629,4.725.917,3.314,5.853,11.495,9.52,7.4,3.385,8.321,12.341,8.321,15.726s7.264,4.513,7.264,4.513Z" transform="translate(-769.231 -493.119)" fill="url(#linear-gradient-2)"/>
          <path id="Path_89" data-name="Path 89" d="M866.831,580.209l2.327-2.186a10.346,10.346,0,0,1,3.949-2.186c7.193-1.9,29.9-9.027,39.28-26.163a.339.339,0,0,0-.141-.423h-.07c-.07,0-.07-.071-.141-.071-3.1-.211-19.252-.494-40.831,17.912a7.5,7.5,0,0,0-1.058,1.058c-.564.776-1.41,2.045-1.834,2.75-.564.987.564,2.68-.917,4.09s-4.8,5.148-4.8,5.148l2.68,1.975Z" transform="translate(-795.531 -498.645)" fill="url(#linear-gradient-3)"/>
          <path id="Path_90" data-name="Path 90" d="M840.042,557.7s6.206-55.359-10.719-72.777c-15.585-16.008-15.8-1.269-15.726,1.2a2.059,2.059,0,0,0,.141.635,34.678,34.678,0,0,1,3.6,22.355c-1.622,8.039,9.873,6.982,10.86,14.88s5.007,20.028,4.584,25.669c-.423,5.571-.423,11-.423,11l6.206.212Z" transform="translate(-781.083 -477.548)" fill="url(#linear-gradient-4)"/>
          <path id="Path_91" data-name="Path 91" d="M840.06,557.905c.071-.141.071-.282.141-.353.353-3.6,5.571-55.782-10.719-72.636-15.444-15.938-15.656-1.481-15.585,1.128a3.051,3.051,0,0,0,.353.846c1.128,1.693,6.206,8.886,10.79,8.11,12.482-2.257,1.481,12.835,8.251,20.874,5.43,6.347,3.6,28.279,3.244,33.92a60.538,60.538,0,0,1-1.552,9.379,1.446,1.446,0,0,0,1.128,1.693h.141c.141,0,.212.07.282.07h1.128a1.617,1.617,0,0,0,1.622-.917Z" transform="translate(-781.172 -477.539)" fill="url(#linear-gradient-5)"/>
          <path id="Path_92" data-name="Path 92" d="M857.837,572.357s1.128-15.373,10.084-24.682a18.316,18.316,0,0,1,9.168-5.148c2.68-.635,7.052-2.75,10.86-9.943,0,0,7.193-10.226,14.457-13.328,7.193-3.1,0-3.456,0-3.456s-20.662,3.949-33.85,16.008a14.986,14.986,0,0,1-2.68,2.045c-3.455,2.327-12.905,11.213-12.482,36.953Z" transform="translate(-792.813 -488.818)" fill="url(#linear-gradient-6)"/>
          <path id="Path_93" data-name="Path 93" d="M867.409,593.445s.282-1.833-2.186-1.833c-2.186.07-38.575-.212-38.575-.212s-1.693,0-1.551,1.269,5.642,31.593,6.135,32.3a1.693,1.693,0,0,0,1.058.776c.705.211,26.234.07,26.234.07a1.282,1.282,0,0,0,1.128-1.2c-.07.071,7.828-30.817,7.757-31.17" transform="translate(-784.473 -511.105)" fill="url(#linear-gradient-7)"/>
        </g>
      </g>
      <g id="man_with_ipad">
        <g id="Group_16" data-name="Group 16" transform="translate(31.436 306.111)">
          <path id="Path_94" data-name="Path 94" d="M224.421,569.27l-1.834-.07-9.379.07s-2.045,9.591-3.173,13.61c-.071.282-.282.917-.423,1.411a10.764,10.764,0,0,0-.212,2.116c.212,3.667,1.551,6.7,4.8,8.392,3.526,1.834,6.276,3.456,10.084,0s4.3-5.642,2.821-11.636C225.761,577.1,225.267,569.482,224.421,569.27Z" transform="translate(-209.4 -569.2)" fill="#4b44be"/>
          <path id="Path_95" data-name="Path 95" d="M276.771,581.524h0c-6.488-2.045-10.79-10.79-10.79-10.79l-11-.635s-.635,8.886-.917,13.4c-.423,5.994.635,8.674,4.584,8.392,5.219-.423,26.375,1.481,29.76-.635C292.709,588.365,282.766,583.428,276.771,581.524Z" transform="translate(-222.541 -569.465)" fill="#4b44be"/>
        </g>
        <path id="Path_96" data-name="Path 96" d="M192.4,344.8v13.187L208.338,503.26h11.283s3.879-99.646,3.879-103.1.987-14.245.987-14.245,14.175,40.9,14.457,44.357c.282,3.385-2.327,73.906-2.327,73.906l11.283.423s9.873-47.672,9.873-52.185,3.385-27.926,2.821-32.439c-.494-4.513-8.886-74.752-8.886-74.752L234.43,344.8Z" transform="translate(-172.953 -196.937)" fill="url(#linear-gradient-8)"/>
        <path id="Path_97" data-name="Path 97" d="M258.926,271.876l-.141-.212c0,.141.071.282.141.212m-33.145-12.764-6.276,2.609-.353,8.745,6.982,2.75c0-.071,7.616-.282,7.616-.353.071-.353,3.032-.282,4.372.635l23.624-8.11.846-5.642s1.763,7.123-6.135-7.193ZM253.99,230.34l-.494-2.821-1.2-.212,1.693,3.032m-43.652-75.88c-2.891,1.2-4.3,5.43-4.3,5.43s-1.41-.846-1.41,1.551,1.2,7.828,2.045,9.238a80.435,80.435,0,0,1,4.09,7.264c1.128,2.539.776,7.616-.423,8.392S187.7,206.292,187.7,206.292l-17.7,54.3v2.186l2.68.917,2.821,2.4c.282.071,3.808,1.975,4.3,2.327a39.239,39.239,0,0,0,8.886,3.173c1.975.423,10.86.212,10.86.212l8.956-.212-1.551-11.424-13.258-.141-18.124-.917,18.406-42.242,57.968,10.367c-10.3-18.617-21.861-39.562-22.919-41.748-.846-1.834.07-6.135.564-8.392.423-2.045,1.481-4.584,2.4-5.289a11.218,11.218,0,0,0,2.68-5.5c0-1.41.423-7.123-.776-5.924-.353.353-1.763-1.834-2.257-3.949-.776-3.1-2.962-5.289-5.43-7.334,0,0-12.764,4.231-15.656,5.43" transform="translate(-166.349 -139.246)" fill="url(#linear-gradient-9)"/>
        <path id="Path_98" data-name="Path 98" d="M186.668,210.87c-2.821,1.9-5.43,4.443-6.347,7.757s-7.687,29.054-8.6,32.3c-2.186,7.969-3.526,10.3-6.135,19.6-3.173,11.495,4.161,13.258,11.636,14.95,7.828,1.763,7.9,2.539,9.732,2.539.282,0,9.591,1.9,9.873-3.385.212-3.315-.423-8.533-1.622-8.392-2.821.423-12.059-2.045-12.553-2.327-.635-.423,1.975-7.616,3.526-12.059,1.128-3.314,5.36-17,6.276-19.6.494-1.41-2.4,13.328-4.161,27.715-.071.564-.776,6.135-.564,6.135,2.116,0,7.9.071,9.661.282,8.11.917,9.661,4.8,9.168,7.9-.917,5.43-20.663,2.891-20.521,3.6,0,0-3.385,15.3-1.481,16.29,1.622.846,23.765,10.084,28.49,11.847a.948.948,0,0,0,1.269-.635v-.07l3.032-8.6c.071-.07.141-.141.282-.07a.069.069,0,0,1,.071.07l2.821,9.45a1.2,1.2,0,0,0,.423.564h1.269l24.612-5.289s-.071-9.732-.141-22.143c0-1.269-.212-5.853-1.128-5.007s-21.438,3.526-23.695,2.609c-4.725-1.975-3.526-6.982-1.834-9.027,1.9-2.327,26.163-3.526,26.234-5.289.423-7.616-.212-27.573-.635-25.176-.635,3.738-14.809,24.259-14.809,27.856s-.282,12.553-.282,12.553l23.272-1.834s7.828-2.68,8.533-7.193-.141-6.488-.423-13.258c-.212-4.231-6.206-29.83-7.9-37.094a17.928,17.928,0,0,1-.494-3.314c-.212-3.032-1.41-10.014-7.9-13.046-8.039-3.808-14.245-6.841-15.867-6.841-1.481,0-5.642,9.027-7.757,11.565-.917,1.128-.776,1.692-1.975,3.385a1.933,1.933,0,0,1-2.75.423,1.9,1.9,0,0,1-.494-.564,28.473,28.473,0,0,1-1.834-3.173c-.917-1.9-8.321-12.764-8.321-12.764s-17.136,4.8-19.957,6.77" transform="translate(-164.823 -155.46)" fill="url(#linear-gradient-10)"/>
        <path id="Path_99" data-name="Path 99" d="M239.776,145.051s-15.726,5.853-16.854,6.7a23.113,23.113,0,0,0-3.173,4.09s-1.128-.635-1.34,1.058a22.565,22.565,0,0,1-1.834-5.148c-.212-1.834,0-6.629,3.032-9.8s9.1-7.334,12.835-6.77,5.36.987,7.687,3.385a15.361,15.361,0,0,0,5.077,3.385,8.346,8.346,0,0,1,3.879,5.994c.423,3.667-.776,11-.776,11s.353-2.821-.776-1.975c-.776.635-1.975-1.975-2.327-3.526C244.713,151.821,240.693,145.4,239.776,145.051Z" transform="translate(-180.062 -135.127)" fill="url(#linear-gradient-11)"/>
        <g id="Group_21" data-name="Group 21" transform="translate(54.919 39.05)" opacity="0.07">
          <g id="Group_20" data-name="Group 20">
            <g id="Group_19" data-name="Group 19">
              <g id="Group_18" data-name="Group 18">
                <g id="Group_17" data-name="Group 17" clip-path="url(#clip-path)">
                  <path id="Path_100" data-name="Path 100" d="M252.622,201.224c-.07-.282,1.693,1.058-.423-.423-2.962-2.186-1.551-11-1.551-11a10.044,10.044,0,0,1-5.36,5.007c-3.738,1.41-4.936.353.917,3.738,5.712,3.314,2.75,4.443,2.327,8.815" transform="translate(-242.538 -190.294)"/>
                </g>
              </g>
            </g>
          </g>
        </g>
        <g id="Group_32" data-name="Group 32" transform="translate(16.979 70.643)">
          <g id="Group_26" data-name="Group 26" transform="translate(42.876)" opacity="0.07">
            <g id="Group_25" data-name="Group 25">
              <g id="Group_24" data-name="Group 24">
                <g id="Group_23" data-name="Group 23">
                  <g id="Group_22" data-name="Group 22" clip-path="url(#clip-path-2)">
                    <path id="Path_101" data-name="Path 101" d="M268.311,247.37l7.828,29.619s-.071,5.289-1.622,6.065-6.488,1.269-7.616,1.833-13.117,3.032-10.014-1.2c.705-.917,16.925-6.629,9.661-12.553s-5.994-14.245-2.468-19.957,2.75-10.578,2.75-10.578Z" transform="translate(-251.668 -236.862)"/>
                  </g>
                </g>
              </g>
            </g>
          </g>
          <g id="Group_31" data-name="Group 31" transform="translate(0 77.502)" opacity="0.07">
            <g id="Group_30" data-name="Group 30">
              <g id="Group_29" data-name="Group 29">
                <g id="Group_28" data-name="Group 28">
                  <g id="Group_27" data-name="Group 27" clip-path="url(#clip-path-3)">
                    <path id="Path_102" data-name="Path 102" d="M216.525,357s-6.77,35.895-3.244,50.211c5.289,21.72-2.327,51.127-2.327,65.231,0,9.168,3.6,34.485,3.879,44.851.071,3.1,2.327,9.1.635,10.508-.705.635-5.007-.776-7.334-1.9a3.2,3.2,0,0,1-1.834-3.173l1.41-6.135,1.975-8.11L195.651,377.236s-4.513-29.2-1.975-29.337S216.6,357,216.525,357" transform="translate(-190.08 -345.995)"/>
                  </g>
                </g>
              </g>
            </g>
          </g>
          <path id="Path_103" data-name="Path 103" d="M216.5,292.4l26.516,3.314a1.117,1.117,0,0,1,.846,1.269l-.776,23.977c-.071.776-.494,1.763-1.2,1.551l-26.375-5.078a1.207,1.207,0,0,1-.846-1.128L214.6,313.7l2.891-.776a6.246,6.246,0,0,0,2.045-1.058.85.85,0,0,0,.353-.353l.635-.917a1.123,1.123,0,0,0,.212-.917c-.071-.564-.282-1.269-.353-1.692-.071-.141-.071-.282-.141-.423l-.635-1.41a3.022,3.022,0,0,0-1.481-1.481l-.423-.212-2.821-1.551.282-9.379a1.175,1.175,0,0,1,1.2-1.128Z" transform="translate(-196.476 -252.133)" fill="#fff"/>
        </g>
      </g>
      <g id="Laptop" transform="translate(222.81 110.134)">
        <path id="Path_104" data-name="Path 104" d="M527.928,336.311l58.885-2.468,8.745-41.043-59.8.494L526.8,336.241" transform="translate(-494.343 -291.742)" fill="url(#linear-gradient-12)"/>
        <ellipse id="Ellipse_8" data-name="Ellipse 8" cx="3.597" cy="3.808" rx="3.597" ry="3.808" transform="translate(63.98 20.239)" fill="#fff"/>
        <path id="Path_105" data-name="Path 105" d="M513.8,350.171l-32.157-.07a.447.447,0,0,0-.423.353l-.423,1.9c-.07.212.07.423.353.494h.07l32.016.282a.447.447,0,0,0,.423-.353l.564-2.186a.4.4,0,0,0-.282-.494C513.867,350.171,513.867,350.171,513.8,350.171Z" transform="translate(-480.775 -308.634)" fill="url(#linear-gradient-13)"/>
        <path id="Path_106" data-name="Path 106" d="M534.8,291.723l59.8-.423c.07,0,.141.07.211.141l.776.917-59.59.494c-.141,0-.211.07-.282.212l-7.757,42.524c0,.141-.141.212-.282.212h-.494a.3.3,0,0,1-.282-.282v-.071l7.4-43.3A.472.472,0,0,1,534.8,291.723Z" transform="translate(-494.372 -291.3)" fill="url(#linear-gradient-14)"/>
      </g>
      <g id="Calendar" transform="translate(363.164 131.432)">
        <path id="Path_107" data-name="Path 107" d="M683.89,323.7l-4.09,23.2s5.289-.917,7.828,0l-3.738-23.2" transform="translate(-679.8 -322.149)" fill="url(#linear-gradient-15)"/>
        <path id="Path_108" data-name="Path 108" d="M685.6,323.7l3.738,23.2s15.726-1.975,27.785-.141l-4.3-22.99L685.6,323.7" transform="translate(-681.51 -322.149)" fill="#fcfcfc"/>
        <path id="Path_109" data-name="Path 109" d="M706,339.162l-3.808.071L701.7,336.2h3.738Z" transform="translate(-686.256 -325.833)" fill="#58caea"/>
        <path id="Path_110" data-name="Path 110" d="M714.572,338.932l-3.808.071-.564-3.1h3.738Z" transform="translate(-688.762 -325.745)" fill="#58caea"/>
        <path id="Path_111" data-name="Path 111" d="M722.672,338.962l-3.808.07L718.3,336h3.738Z" transform="translate(-691.15 -325.775)" fill="#58caea"/>
        <path id="Path_112" data-name="Path 112" d="M723.7,344.832l-3.738.071-.564-3.1h3.667Z" transform="translate(-691.474 -327.484)" fill="#58caea"/>
        <path id="Path_113" data-name="Path 113" d="M707.172,344.732l-3.808.071-.564-3.032,3.738-.071Z" transform="translate(-686.58 -327.455)" fill="#58caea"/>
        <path id="Path_114" data-name="Path 114" d="M698.872,345.032l-3.808.071L694.5,342h3.738Z" transform="translate(-684.133 -327.543)" fill="#58caea"/>
        <path id="Path_115" data-name="Path 115" d="M700.172,351.062l-3.808.07L695.8,348.1h3.737Z" transform="translate(-684.517 -329.342)" fill="#58caea"/>
        <path id="Path_116" data-name="Path 116" d="M708.472,350.932l-3.808.071-.564-3.032,3.738-.07Z" transform="translate(-686.963 -329.283)" fill="#58caea"/>
        <path id="Path_117" data-name="Path 117" d="M716.972,350.932l-3.808.071-.564-3.1h3.738Z" transform="translate(-689.469 -329.283)" fill="#58caea"/>
        <path id="Path_118" data-name="Path 118" d="M715.672,344.732l-3.808.071-.564-3.032,3.738-.071Z" transform="translate(-689.086 -327.455)" fill="url(#linear-gradient-16)"/>
        <path id="Path_119" data-name="Path 119" d="M685.6,323.7l1.058,6.629,27.432-.141-1.269-6.417Z" transform="translate(-681.51 -322.149)" fill="url(#linear-gradient-17)"/>
        <path id="Path_120" data-name="Path 120" d="M696.2,321.571l2.116-.071.212,2.962h-2.045Z" transform="translate(-684.635 -321.5)" fill="url(#linear-gradient-18)"/>
        <path id="Path_121" data-name="Path 121" d="M714.7,321.771l1.763-.07.212,2.75h-1.763Z" transform="translate(-690.088 -321.559)" fill="url(#linear-gradient-19)"/>
        <path id="Path_122" data-name="Path 122" d="M679.8,356.6" transform="translate(-679.8 -331.847)" fill="#fff"/>
      </g>
      <g id="Books-2" data-name="Books" transform="translate(224.303 15.778)">
        <g id="Files" transform="translate(30.472 18.547)">
          <path id="Path_123" data-name="Path 123" d="M526.312,183.8h12.482a.187.187,0,0,1,.212.212h0a.187.187,0,0,1-.212.212H526.312a.187.187,0,0,1-.212-.212h0A.225.225,0,0,1,526.312,183.8Z" transform="translate(-526.1 -183.8)" fill="#f4f4f4"/>
          <path id="Path_124" data-name="Path 124" d="M526.312,184.9h12.482a.187.187,0,0,1,.212.212h0a.187.187,0,0,1-.212.212H526.312a.187.187,0,0,1-.212-.212h0A.187.187,0,0,1,526.312,184.9Z" transform="translate(-526.1 -184.124)" fill="#f4f4f4"/>
          <path id="Path_125" data-name="Path 125" d="M526.312,186h12.482a.187.187,0,0,1,.212.212h0a.187.187,0,0,1-.212.212H526.312a.187.187,0,0,1-.212-.212h0A.187.187,0,0,1,526.312,186Z" transform="translate(-526.1 -184.449)" fill="#f4f4f4"/>
          <path id="Path_126" data-name="Path 126" d="M530.312,189.4h11.354a.187.187,0,0,1,.212.212h0a.187.187,0,0,1-.212.212H530.312a.187.187,0,0,1-.211-.212h0A.225.225,0,0,1,530.312,189.4Z" transform="translate(-527.279 -185.451)" fill="#f4f4f4"/>
          <path id="Path_127" data-name="Path 127" d="M530.312,190.5h11.354a.187.187,0,0,1,.212.212h0a.187.187,0,0,1-.212.212H530.312a.187.187,0,0,1-.211-.212h0A.225.225,0,0,1,530.312,190.5Z" transform="translate(-527.279 -185.775)" fill="#f4f4f4"/>
          <path id="Path_128" data-name="Path 128" d="M530.312,191.5h11.354a.187.187,0,0,1,.212.212h0a.187.187,0,0,1-.212.212H530.312a.187.187,0,0,1-.211-.212h0A.318.318,0,0,1,530.312,191.5Z" transform="translate(-527.279 -186.07)" fill="#f4f4f4"/>
        </g>
        <g id="book1" transform="translate(12.277 17.701)">
          <path id="Path_129" data-name="Path 129" d="M502.5,182.7" transform="translate(-500.949 -182.629)" fill="#4b46bd"/>
          <path id="Path_130" data-name="Path 130" d="M501.993,182.671A1.831,1.831,0,0,0,500.3,184.5a1.789,1.789,0,0,0,1.763,1.763l29.619.071v-.494H518.424s-.423.071-.353-.564v-1.763a.447.447,0,0,1,.353-.423h0c.564,0,12.976.141,12.976.141V182.6Z" transform="translate(-500.3 -182.6)" fill="url(#linear-gradient-20)"/>
          <line id="Line_1" data-name="Line 1" x2="12.835" y2="0.071" transform="translate(17.912 0.776)" fill="rgba(0,0,0,0)"/>
          <line id="Line_2" data-name="Line 2" x2="12.835" y2="0.071" transform="translate(17.912 1.128)" fill="rgba(0,0,0,0)"/>
          <line id="Line_3" data-name="Line 3" x2="12.835" y2="0.071" transform="translate(17.912 1.481)" fill="rgba(0,0,0,0)"/>
          <line id="Line_4" data-name="Line 4" x2="12.835" y2="0.071" transform="translate(17.912 1.763)" fill="rgba(0,0,0,0)"/>
          <line id="Line_5" data-name="Line 5" x2="12.835" y2="0.071" transform="translate(17.912 2.186)" fill="rgba(0,0,0,0)"/>
          <line id="Line_6" data-name="Line 6" x2="12.835" y2="0.071" transform="translate(17.912 2.609)" fill="rgba(0,0,0,0)"/>
        </g>
        <g id="book2" transform="translate(13.335 18.547)">
          <path id="Path_131" data-name="Path 131" d="M503.633,187.771a2.063,2.063,0,0,0-1.833,2.045,1.95,1.95,0,0,0,1.622,2.045h30.324v-.635H522.039a.619.619,0,0,1-.635-.776V188.9a.5.5,0,0,1,.564-.564c.564,0,11.636.141,11.636.141V187.7Z" transform="translate(-501.8 -184.95)" fill="url(#linear-gradient-21)"/>
          <line id="Line_7" data-name="Line 7" x2="11.142" y2="0.071" transform="translate(19.887 3.808)" fill="rgba(0,0,0,0)"/>
          <line id="Line_8" data-name="Line 8" x2="11.142" transform="translate(19.887 4.161)" fill="rgba(0,0,0,0)"/>
          <line id="Line_9" data-name="Line 9" x2="11.142" y2="0.071" transform="translate(19.887 4.443)" fill="rgba(0,0,0,0)"/>
          <line id="Line_10" data-name="Line 10" x2="11.142" y2="0.071" transform="translate(19.887 4.795)" fill="rgba(0,0,0,0)"/>
          <line id="Line_11" data-name="Line 11" x2="11.142" y2="0.071" transform="translate(19.887 5.219)" fill="rgba(0,0,0,0)"/>
          <line id="Line_12" data-name="Line 12" x2="11.142" y2="0.071" transform="translate(19.887 5.642)" fill="rgba(0,0,0,0)"/>
          <line id="Line_13" data-name="Line 13" x2="11.142" y2="0.071" transform="translate(19.887 5.994)" fill="rgba(0,0,0,0)"/>
          <path id="Path_132" data-name="Path 132" d="M528.6,183.8h.987a1.4,1.4,0,0,1,.564.846c.141.564,0,.776.353,1.41.212.423.423.635.564.917,0,.071.07.423.07.494l.07.987-.423-.282-.423.423a7.5,7.5,0,0,0-.141-1.622c-.141-.282-.846-1.2-.776-1.834C529.658,184.505,529.376,184.223,528.6,183.8Z" transform="translate(-509.7 -183.8)" fill="#f8246a"/>
        </g>
        <path id="Path_133" data-name="Path 133" d="M551.287,157.8h2.257a.964.964,0,0,1,.987.987v23.836a.964.964,0,0,1-.987.987h-2.257a.964.964,0,0,1-.987-.987V158.787A.964.964,0,0,1,551.287,157.8Z" transform="translate(-502.762 -157.588)" fill="url(#linear-gradient-22)"/>
        <path id="Path_134" data-name="Path 134" d="M483.884,157.5h2.257a.964.964,0,0,1,.987.987v23.836a.964.964,0,0,1-.987.987h-2.257a.964.964,0,0,1-.987-.987V158.487A.962.962,0,0,1,483.884,157.5Z" transform="translate(-482.89 -157.5)" fill="url(#linear-gradient-23)"/>
        <path id="Path_135" data-name="Path 135" d="M562.892,171.857l1.622-.917a.932.932,0,0,1,1.34.353l7.969,13.752a.932.932,0,0,1-.353,1.34l-1.622.917a.932.932,0,0,1-1.34-.353L562.54,173.2A.961.961,0,0,1,562.892,171.857Z" transform="translate(-506.328 -161.42)" fill="url(#linear-gradient-24)"/>
        <path id="Path_136" data-name="Path 136" d="M557.287,163h2.257a.964.964,0,0,1,.987.987v20.169a.964.964,0,0,1-.987.987h-2.257a.964.964,0,0,1-.987-.987V163.987A.964.964,0,0,1,557.287,163Z" transform="translate(-504.531 -159.121)" fill="url(#linear-gradient-25)"/>
        <path id="Path_137" data-name="Path 137" d="M489.987,158.8h2.257a.964.964,0,0,1,.987.987v22.919a.964.964,0,0,1-.987.987h-2.257a.964.964,0,0,1-.987-.987V159.787A1.009,1.009,0,0,1,489.987,158.8Z" transform="translate(-484.692 -157.883)" fill="url(#linear-gradient-26)"/>
      </g>
    </g>
  </g>
</svg>
