<svg viewBox="0 0 23.825 23.825">
<path d="M43.913,32A12.07,12.07,0,0,0,32,44.216,12.192,12.192,0,0,0,40.147,55.8a.934.934,0,0,0,.2.021.576.576,0,0,0,.612-.606c0-.293-.011-1.058-.016-2.079a5.446,5.446,0,0,1-1.2.144A2.768,2.768,0,0,1,36.93,51.5a3.226,3.226,0,0,0-1.324-1.787c-1.037-.729-.005-.75.074-.75h.005a2.561,2.561,0,0,1,1.824,1.266,2.339,2.339,0,0,0,2.106,1.335,3.35,3.35,0,0,0,1.361-.319,2.639,2.639,0,0,1,.755-1.633c-2.643-.308-5.425-1.356-5.425-6.036A4.781,4.781,0,0,1,37.531,40.3a4.5,4.5,0,0,1,.117-3.233.991.991,0,0,1,.266-.027,5.663,5.663,0,0,1,3.01,1.282,11.073,11.073,0,0,1,5.967,0,5.663,5.663,0,0,1,3.01-1.282.991.991,0,0,1,.266.027,4.5,4.5,0,0,1,.117,3.233,4.8,4.8,0,0,1,1.223,3.276c0,4.691-2.787,5.722-5.44,6.025a2.962,2.962,0,0,1,.808,2.26c0,1.633-.016,2.952-.016,3.35a.573.573,0,0,0,.606.612,1.03,1.03,0,0,0,.213-.021A12.26,12.26,0,0,0,43.913,32Z" transform="translate(-32 -32)"/>
</svg>