<svg viewBox="0 0 24.269 24.269">
<path d="M49.19,34.022a5.072,5.072,0,0,1,5.056,5.056V49.19a5.072,5.072,0,0,1-5.056,5.056H39.079a5.072,5.072,0,0,1-5.056-5.056V39.079a5.072,5.072,0,0,1,5.056-5.056H49.19m0-2.022H39.079A7.1,7.1,0,0,0,32,39.079V49.19a7.1,7.1,0,0,0,7.079,7.079H49.19a7.1,7.1,0,0,0,7.079-7.079V39.079A7.1,7.1,0,0,0,49.19,32Z" transform="translate(-32 -32)"/>
<path d="M350.847,109.7a1.514,1.514,0,1,1,1.073-.443A1.517,1.517,0,0,1,350.847,109.7Z" transform="translate(-332.14 -102.625)"/>
<path d="M150.067,146.022a4.045,4.045,0,1,1-4.045,4.045,4.045,4.045,0,0,1,4.045-4.045m0-2.022a6.067,6.067,0,1,0,6.067,6.067A6.067,6.067,0,0,0,150.067,144Z" transform="translate(-137.933 -137.933)"/>
</svg>