<svg viewBox="0 0 29.861 23.889">
<path d="M45.861,66.83a12.555,12.555,0,0,1-3.518.952,6.066,6.066,0,0,0,2.7-3.334,12.3,12.3,0,0,1-3.892,1.462A6.168,6.168,0,0,0,36.673,64a6.076,6.076,0,0,0-6.125,6.028,5.8,5.8,0,0,0,.158,1.375,17.462,17.462,0,0,1-12.629-6.3,5.953,5.953,0,0,0-.833,3.03,6.013,6.013,0,0,0,2.737,5.02A6.066,6.066,0,0,1,17.2,72.4v.075a6.057,6.057,0,0,0,4.915,5.91,6.269,6.269,0,0,1-1.614.212,5.871,5.871,0,0,1-1.152-.112,6.123,6.123,0,0,0,5.726,4.187,12.417,12.417,0,0,1-7.61,2.582A12.628,12.628,0,0,1,16,85.164a17.337,17.337,0,0,0,9.378,2.725A17.173,17.173,0,0,0,42.824,70.731c0-.261-.007-.523-.019-.778A12.348,12.348,0,0,0,45.861,66.83Z" transform="translate(-16 -64)"/>
</svg>