<svg xmlns="http://www.w3.org/2000/svg" width="115.166" height="70.532" viewBox="0 0 115.166 70.532">
  <g id="iconfinder_nodejs-new-pantone-black_1012818" transform="translate(-7.305 -8.127)">
    <g id="Group_13" data-name="Group 13" transform="translate(51.645 50.279)">
      <path id="Path_12" data-name="Path 12" d="M190.205,198.42a2.18,2.18,0,0,1-1.091-.292l-3.473-2.055c-.518-.29-.265-.393-.094-.452a6.93,6.93,0,0,0,1.57-.714.267.267,0,0,1,.258.02l2.668,1.584a.342.342,0,0,0,.322,0l10.4-6a.328.328,0,0,0,.159-.281v-12a.336.336,0,0,0-.161-.287l-10.4-6a.326.326,0,0,0-.32,0l-10.393,6a.335.335,0,0,0-.165.285v12a.319.319,0,0,0,.164.278l2.849,1.646c1.546.773,2.492-.137,2.492-1.052V179.248a.3.3,0,0,1,.3-.3h1.319a.3.3,0,0,1,.3.3V191.1c0,2.063-1.124,3.246-3.08,3.246a4.449,4.449,0,0,1-2.4-.651l-2.727-1.57a2.2,2.2,0,0,1-1.091-1.9v-12a2.191,2.191,0,0,1,1.091-1.9l10.4-6.01a2.279,2.279,0,0,1,2.186,0l10.4,6.01a2.2,2.2,0,0,1,1.092,1.9v12a2.2,2.2,0,0,1-1.092,1.9l-10.4,6A2.182,2.182,0,0,1,190.205,198.42Z" transform="translate(-177.623 -170.039)" fill="#fff"/>
      <path id="Path_13" data-name="Path 13" d="M222.654,214.555c-4.551,0-5.5-2.089-5.5-3.841a.3.3,0,0,1,.3-.3h1.345a.3.3,0,0,1,.3.255c.2,1.369.808,2.06,3.561,2.06,2.191,0,3.124-.5,3.124-1.658,0-.67-.264-1.168-3.669-1.5-2.846-.281-4.606-.91-4.606-3.187,0-2.1,1.769-3.35,4.735-3.35,3.332,0,4.981,1.156,5.189,3.637a.3.3,0,0,1-.3.327h-1.35a.3.3,0,0,1-.292-.235c-.324-1.44-1.111-1.9-3.248-1.9-2.392,0-2.67.833-2.67,1.458,0,.757.328.977,3.558,1.4,3.2.422,4.714,1.021,4.714,3.267C227.839,213.257,225.949,214.555,222.654,214.555Z" transform="translate(-206.859 -194.444)" fill="#fff"/>
    </g>
    <g id="Group_14" data-name="Group 14" transform="translate(78.428 55.798)">
      <path id="Path_14" data-name="Path 14" d="M284.51,193.245a2,2,0,1,1-2-2A2.01,2.01,0,0,1,284.51,193.245Zm-3.685-.006a1.681,1.681,0,1,0,1.675-1.676A1.682,1.682,0,0,0,280.825,193.239Zm.928-1.119h.775c.265,0,.785,0,.785.594a.517.517,0,0,1-.425.551c.308.021.329.223.371.509a2.221,2.221,0,0,0,.117.594H282.9c-.011-.106-.085-.679-.085-.71-.031-.128-.074-.191-.233-.191h-.392v.9h-.435V192.12Zm.425.986h.35a.3.3,0,0,0,.339-.318c0-.308-.212-.308-.329-.308h-.36v.626Z" transform="translate(-280.501 -191.24)" fill="#699f63"/>
    </g>
    <path id="Path_15" data-name="Path 15" d="M32.021,76.861a1.33,1.33,0,0,0-.666-1.157L20.328,69.358a1.3,1.3,0,0,0-.607-.175h-.114a1.316,1.316,0,0,0-.609.175L7.972,75.7a1.336,1.336,0,0,0-.667,1.157l.024,17.087a.654.654,0,0,0,.332.575.641.641,0,0,0,.662,0l6.553-3.753a1.342,1.342,0,0,0,.667-1.155V81.633a1.326,1.326,0,0,1,.665-1.153L19,78.873a1.326,1.326,0,0,1,.668-.179,1.3,1.3,0,0,1,.662.179l2.79,1.607a1.328,1.328,0,0,1,.666,1.153v7.983a1.345,1.345,0,0,0,.668,1.155L31,94.524a.649.649,0,0,0,.666,0A.665.665,0,0,0,32,93.949Z" transform="translate(0 -45.161)" fill="#fff"/>
    <path id="Path_16" data-name="Path 16" d="M256.378,8.212a.666.666,0,0,0-.991.582V25.715a.466.466,0,0,1-.7.4l-2.762-1.591a1.332,1.332,0,0,0-1.331,0l-11.031,6.366a1.332,1.332,0,0,0-.666,1.153V44.782a1.333,1.333,0,0,0,.666,1.154l11.031,6.371a1.333,1.333,0,0,0,1.332,0l11.032-6.371a1.333,1.333,0,0,0,.666-1.154V13.038a1.332,1.332,0,0,0-.683-1.163ZM255.354,40.6a.332.332,0,0,1-.167.288L251.4,43.069a.334.334,0,0,1-.332,0l-3.787-2.183a.332.332,0,0,1-.167-.288V36.225a.334.334,0,0,1,.166-.288l3.787-2.188a.333.333,0,0,1,.333,0l3.787,2.188a.334.334,0,0,1,.166.288V40.6Z" transform="translate(-171.301)" fill="#fff"/>
    <g id="Group_15" data-name="Group 15" transform="translate(97.82 24.177)">
      <path id="Path_17" data-name="Path 17" d="M378.977,81.71a1.332,1.332,0,0,0,.663-1.152V77.473a1.332,1.332,0,0,0-.663-1.152l-10.96-6.363a1.332,1.332,0,0,0-1.335,0l-11.027,6.366a1.332,1.332,0,0,0-.666,1.153V90.206a1.331,1.331,0,0,0,.673,1.157l10.958,6.244a1.331,1.331,0,0,0,1.306.007l6.628-3.684a.666.666,0,0,0,.008-1.16l-11.1-6.369a.666.666,0,0,1-.335-.578v-3.99a.665.665,0,0,1,.333-.577l3.454-1.991a.665.665,0,0,1,.665,0l3.455,1.991a.665.665,0,0,1,.333.577v3.139a.666.666,0,0,0,1,.576Z" transform="translate(-354.989 -69.777)" fill="#fff"/>
      <path id="Path_18" data-name="Path 18" d="M395.47,113.226a.255.255,0,0,1,.256,0l2.116,1.221a.256.256,0,0,1,.128.222v2.444a.256.256,0,0,1-.128.222l-2.116,1.221a.255.255,0,0,1-.256,0l-2.115-1.221a.256.256,0,0,1-.128-.222v-2.444a.256.256,0,0,1,.128-.222Z" transform="translate(-383.272 -101.889)" fill="#fff"/>
    </g>
    <path id="XMLID_143_" d="M136.309,70.213a1.324,1.324,0,0,0-1.324,0l-10.969,6.33a1.324,1.324,0,0,0-.663,1.148V90.36a1.326,1.326,0,0,0,.662,1.148l10.969,6.335a1.326,1.326,0,0,0,1.325,0l10.966-6.335a1.325,1.325,0,0,0,.662-1.148V77.69a1.324,1.324,0,0,0-.663-1.147Z" transform="translate(-85.836 -45.791)" fill="#fff"/>
  </g>
</svg>
