<svg xmlns="http://www.w3.org/2000/svg" width="79.012" height="70.305" viewBox="0 0 79.012 70.305">
  <g id="react" transform="translate(-18.5 -50.212)">
    <circle id="Ellipse_1" data-name="Ellipse 1" cx="7.06" cy="7.06" r="7.06" transform="translate(50.96 78.226)" fill="#fff"/>
    <g id="Group_4" data-name="Group 4" transform="translate(18.5 69.254)">
      <path id="Path_5" data-name="Path 5" d="M58.02,217.807c-9.915,0-18.579-1.167-25.062-3.389a31.841,31.841,0,0,1-10.323-5.527c-2.7-2.307-4.135-4.824-4.135-7.257,0-4.669,5.119-9.24,13.713-12.222,7.032-2.447,16.2-3.811,25.794-3.811,9.423,0,18.466,1.322,25.456,3.741a32.358,32.358,0,0,1,9.986,5.26c2.658,2.222,4.065,4.655,4.065,7.032,0,4.852-5.724,9.76-14.95,12.812C76.036,216.611,67.317,217.807,58.02,217.807Zm0-28.831c-9.1,0-18.1,1.322-24.683,3.614-7.9,2.757-11.448,6.526-11.448,9.043,0,2.616,3.811,6.737,12.165,9.592,6.132,2.1,14.43,3.207,23.965,3.207,8.945,0,17.285-1.125,23.487-3.193,8.678-2.883,12.644-7,12.644-9.606,0-1.336-1.013-2.911-2.855-4.444a28.944,28.944,0,0,0-8.917-4.669C75.727,190.241,67.078,188.975,58.02,188.975Z" transform="translate(-18.5 -185.6)" fill="#fff"/>
    </g>
    <g id="Group_5" data-name="Group 5" transform="translate(33.782 50.212)">
      <path id="Path_6" data-name="Path 6" d="M135.378,120.475a7.415,7.415,0,0,1-3.769-.928c-4.036-2.335-5.443-9.057-3.741-17.988,1.392-7.327,4.8-15.935,9.592-24.247,4.711-8.157,10.365-15.33,15.949-20.182a32.108,32.108,0,0,1,9.55-6.019c3.249-1.2,6.062-1.2,8.115-.014,4.205,2.419,5.6,9.845,3.629,19.352-1.392,6.751-4.711,14.894-9.353,22.953-4.951,8.579-10.295,15.5-15.457,20.013a31.875,31.875,0,0,1-9.943,6.174A13.709,13.709,0,0,1,135.378,120.475Zm3.53-42.319,1.463.844c-4.543,7.876-7.9,16.328-9.2,23.192-1.561,8.228-.056,13.178,2.11,14.43a4.163,4.163,0,0,0,2.1.478c2.8,0,7.2-1.772,12.292-6.216,4.88-4.261,9.986-10.9,14.753-19.155,4.472-7.749,7.651-15.541,8.973-21.94,1.842-8.959.253-14.444-2.011-15.752-1.153-.661-3.024-.577-5.274.253a28.722,28.722,0,0,0-8.495,5.4c-5.3,4.613-10.717,11.476-15.246,19.324Z" transform="translate(-127.159 -50.212)" fill="#fff"/>
    </g>
    <g id="Group_6" data-name="Group 6" transform="translate(33.8 50.28)">
      <path id="Path_7" data-name="Path 7" d="M167.524,120.933c-3.825,0-8.678-2.307-13.741-6.666-5.654-4.866-11.406-12.109-16.216-20.421h0c-4.726-8.157-8.1-16.638-9.521-23.909a32.264,32.264,0,0,1-.45-11.279c.591-3.418,1.983-5.851,4.05-7.046,4.191-2.433,11.322.07,18.579,6.526,5.147,4.571,10.548,11.519,15.2,19.563,4.965,8.579,8.3,16.666,9.62,23.389a32.15,32.15,0,0,1,.394,11.7c-.647,3.5-2.11,5.991-4.219,7.215A7.224,7.224,0,0,1,167.524,120.933ZM140.492,92.158c4.557,7.876,10.211,15.006,15.5,19.549,6.343,5.457,11.378,6.638,13.558,5.372,2.264-1.308,3.924-6.666,2.208-15.33-1.266-6.357-4.458-14.092-9.24-22.348-4.486-7.749-9.648-14.4-14.528-18.733-6.835-6.076-12.376-7.44-14.641-6.132-1.153.661-2.011,2.335-2.419,4.7a28.765,28.765,0,0,0,.436,10.056c1.35,6.906,4.585,15.021,9.128,22.868Z" transform="translate(-127.284 -50.696)" fill="#fff"/>
    </g>
  </g>
</svg>
